<svg xmlns="http://www.w3.org/2000/svg" width="386.87" height="350.55" viewBox="0 0 386.87 350.55">
  <g id="Layer_2" data-name="Layer 2">
    <g id="Layer_1-2" data-name="Layer 1">
      <g>
        <polygon points="12.62 82.83 2.08 82.83 2.08 71.91 0 71.91 0 96.6 2.08 96.6 2.08 84.74 12.62 84.74 12.62 96.6 14.7 96.6 14.7 71.91 12.62 71.91 12.62 82.83"/>
        <path d="M24.1,100.74a3.53,3.53,0,0,0,2.06-3.33,3.62,3.62,0,0,0-.49-1.91,3.38,3.38,0,0,0-1.31-1.26,3.94,3.94,0,0,0-1.87-.44,3.88,3.88,0,0,0-2.7,1,4.34,4.34,0,0,0-1.35,2.69l1.08.18a3.65,3.65,0,0,1,1-2.08,2.7,2.7,0,0,1,1.95-.7,2.43,2.43,0,0,1,1.86.73,2.63,2.63,0,0,1,.7,1.93,2.88,2.88,0,0,1-.71,2,2.4,2.4,0,0,1-1.85.76H21.14v1.07h1.23a2.84,2.84,0,0,1,2.13.77,3,3,0,0,1,.75,2.2,3.21,3.21,0,0,1-.76,2.27,2.65,2.65,0,0,1-2.08.83c-1.8,0-2.78-1-2.93-3H18.35a4.44,4.44,0,0,0,1.13,3,3.86,3.86,0,0,0,2.87,1.07,4.07,4.07,0,0,0,2.15-.55,3.66,3.66,0,0,0,1.43-1.49,4.57,4.57,0,0,0,.49-2.15,4,4,0,0,0-.59-2.24A3.34,3.34,0,0,0,24.1,100.74Z"/>
        <path d="M42.66,95a11,11,0,0,0,2.28-6.45H42.8q-.59,6.85-5.33,6.85a5,5,0,0,1-4.62-2.82c-1-1.88-1.57-4.65-1.57-8.32s.52-6.44,1.56-8.31a5,5,0,0,1,4.56-2.82,4.19,4.19,0,0,1,3.44,1.6,10.43,10.43,0,0,1,1.82,4.9l2-.35a11.62,11.62,0,0,0-2.4-6,6.21,6.21,0,0,0-4.83-2,6.93,6.93,0,0,0-6.22,3.36c-1.43,2.24-2.15,5.45-2.15,9.65s.7,7.46,2.09,9.65a6.87,6.87,0,0,0,6.18,3.28A6.64,6.64,0,0,0,42.66,95Z"/>
        <polygon points="130.92 97.78 120.72 76.44 118.4 76.44 118.4 101.13 120.34 101.13 120.34 79.79 130.54 101.13 132.86 101.13 132.86 76.44 130.92 76.44 130.92 97.78"/>
        <polygon points="298.62 82.2 308.82 103.54 311.14 103.54 311.14 78.84 309.2 78.84 309.2 100.18 299 78.84 296.68 78.84 296.68 103.54 298.62 103.54 298.62 82.2"/>
        <path d="M170.85,25.94a7.21,7.21,0,0,0,6.42-3.32c1.46-2.22,2.2-5.45,2.2-9.72s-.71-7.45-2.13-9.63A7,7,0,0,0,171.06,0a7.21,7.21,0,0,0-6.41,3.32q-2.21,3.32-2.2,9.72t2.13,9.63A7,7,0,0,0,170.85,25.94ZM166.2,4.6A5.17,5.17,0,0,1,171,1.83a5.1,5.1,0,0,1,4.74,2.74q1.56,2.73,1.56,8.36t-1.58,8.41a5.16,5.16,0,0,1-4.79,2.77,5.09,5.09,0,0,1-4.73-2.74q-1.56-2.73-1.56-8.37C164.63,9.25,165.15,6.44,166.2,4.6Z"/>
        <polygon points="337.8 294.86 337.8 319.55 339.74 319.55 339.74 298.21 349.94 319.55 352.26 319.55 352.26 294.86 350.32 294.86 350.32 316.19 340.12 294.86 337.8 294.86"/>
        <polygon points="350.43 336.79 339.88 336.79 339.88 325.86 337.8 325.86 337.8 350.55 339.88 350.55 339.88 338.69 350.43 338.69 350.43 350.55 352.5 350.55 352.5 325.86 350.43 325.86 350.43 336.79"/>
        <polygon points="53.22 162.58 42.67 162.58 42.67 151.65 40.6 151.65 40.6 176.34 42.67 176.34 42.67 164.48 53.22 164.48 53.22 176.34 55.3 176.34 55.3 151.65 53.22 151.65 53.22 162.58"/>
        <path d="M64.7,180.48a3.51,3.51,0,0,0,2-3.33,3.67,3.67,0,0,0-.48-1.9A3.24,3.24,0,0,0,65,174a3.87,3.87,0,0,0-1.88-.45,3.91,3.91,0,0,0-2.7,1A4.47,4.47,0,0,0,59,177.19l1.09.19a3.59,3.59,0,0,1,1-2.08,2.69,2.69,0,0,1,1.94-.71,2.48,2.48,0,0,1,1.87.73,2.68,2.68,0,0,1,.69,1.93,2.85,2.85,0,0,1-.7,2A2.41,2.41,0,0,1,63,180H61.73v1.07H63a2.85,2.85,0,0,1,2.14.76,3,3,0,0,1,.75,2.2,3.22,3.22,0,0,1-.76,2.28,2.68,2.68,0,0,1-2.09.82c-1.8,0-2.77-1-2.92-3H59a4.39,4.39,0,0,0,1.13,3,3.79,3.79,0,0,0,2.86,1.07,4.22,4.22,0,0,0,2.16-.54,3.64,3.64,0,0,0,1.42-1.49A4.62,4.62,0,0,0,67,184a4,4,0,0,0-.6-2.24A3.33,3.33,0,0,0,64.7,180.48Z"/>
        <path d="M78.07,175.13a5,5,0,0,1-4.62-2.82c-1-1.87-1.57-4.65-1.57-8.31s.52-6.44,1.55-8.32A5,5,0,0,1,78,152.86a4.2,4.2,0,0,1,3.44,1.61,10.34,10.34,0,0,1,1.82,4.89l2-.34a11.47,11.47,0,0,0-2.41-6,6.17,6.17,0,0,0-4.82-2,7,7,0,0,0-6.23,3.35q-2.15,3.36-2.14,9.65t2.09,9.65A6.86,6.86,0,0,0,78,177a6.69,6.69,0,0,0,5.3-2.23,11,11,0,0,0,2.28-6.45H83.39Q82.81,175.13,78.07,175.13Z"/>
        <path d="M349.38,82.33a6.62,6.62,0,0,0,5.29-2.23A10.94,10.94,0,0,0,357,73.65h-2.15q-.58,6.85-5.32,6.85a5,5,0,0,1-4.62-2.82q-1.58-2.82-1.57-8.32c0-3.66.51-6.44,1.55-8.32a5,5,0,0,1,4.57-2.81,4.2,4.2,0,0,1,3.44,1.6,10.43,10.43,0,0,1,1.81,4.9l2-.35a11.35,11.35,0,0,0-2.4-6,6.16,6.16,0,0,0-4.82-2,7,7,0,0,0-6.23,3.36q-2.14,3.34-2.14,9.65c0,4.24.69,7.46,2.09,9.65A6.84,6.84,0,0,0,349.38,82.33Z"/>
        <polygon points="362.52 69.85 373.07 69.85 373.07 81.71 375.15 81.71 375.15 57.02 373.07 57.02 373.07 67.94 362.52 67.94 362.52 57.02 360.45 57.02 360.45 81.71 362.52 81.71 362.52 69.85"/>
        <path d="M386.27,87.16a3.28,3.28,0,0,0-1.72-1.31,3.53,3.53,0,0,0,2.06-3.33,3.62,3.62,0,0,0-.49-1.91,3.38,3.38,0,0,0-1.31-1.26,3.94,3.94,0,0,0-1.87-.44,3.88,3.88,0,0,0-2.7,1,4.34,4.34,0,0,0-1.35,2.69l1.08.18a3.62,3.62,0,0,1,1-2.08,2.7,2.7,0,0,1,1.95-.7,2.46,2.46,0,0,1,1.86.72,2.67,2.67,0,0,1,.7,1.94,2.88,2.88,0,0,1-.71,2,2.4,2.4,0,0,1-1.85.76h-1.29v1.07h1.23a2.84,2.84,0,0,1,2.13.77,3,3,0,0,1,.75,2.2,3.21,3.21,0,0,1-.76,2.27,2.68,2.68,0,0,1-2.08.83c-1.8,0-2.78-1-2.93-3H378.8a4.39,4.39,0,0,0,1.13,3,3.86,3.86,0,0,0,2.87,1.07A4.07,4.07,0,0,0,385,93a3.66,3.66,0,0,0,1.43-1.49,4.58,4.58,0,0,0,.49-2.16A4,4,0,0,0,386.27,87.16Z"/>
        <path d="M54.06,81.42a1.46,1.46,0,0,0,.72-.19l27-14.87a2.5,2.5,0,0,1,2.52.06l24,14.78a1.5,1.5,0,0,0,1.57-2.56l-24-14.78a5.54,5.54,0,0,0-5.54-.13l-27,14.87a1.5,1.5,0,0,0,.73,2.82Z"/>
        <path d="M126.06,108.42a1.5,1.5,0,0,0-1.5,1.5v27.83a2.51,2.51,0,0,1-1.14,2.1L99.23,155.66a1.5,1.5,0,0,0,.83,2.76,1.48,1.48,0,0,0,.82-.25l24.19-15.81a5.48,5.48,0,0,0,2.49-4.61V109.92A1.5,1.5,0,0,0,126.06,108.42Z"/>
        <path d="M347,222.85a5.45,5.45,0,0,0-2.25-1.49,5.45,5.45,0,0,0,.48-2.23V172.25a5.45,5.45,0,0,0-3-4.92l-39.67-19.84a4.84,4.84,0,0,0-1-.36V109.68a1.5,1.5,0,0,0-3,0V147l-1,.47h0l-39.68,19.84h0l-.26.13a2.48,2.48,0,0,1-2.39-.09l-38.44-22.71a2.52,2.52,0,0,1-1.22-2.15V95.34a2.5,2.5,0,0,1,1.33-2.22l40.92-21.45a2.52,2.52,0,0,1,2.44.07l26.59,15.89a1.5,1.5,0,0,0,1.53-2.58L261.79,69.16a5.56,5.56,0,0,0-5.38-.15L215.5,90.47a5.42,5.42,0,0,0-1.2.85L179,70.79a1.63,1.63,0,0,0,.08-.45V32.92a1.5,1.5,0,0,0-3,0V69.09l-2.38-1.38a5.49,5.49,0,0,0-5.23-.17l-1.61.81V32.92a1.5,1.5,0,1,0-3,0V69.85L140.39,81.58a1.49,1.49,0,0,0-.68,2,1.51,1.51,0,0,0,2,.67l28.07-14a2.49,2.49,0,0,1,2.37.07l40.58,23.59a5.39,5.39,0,0,0-.19,1.45v47.17a5.51,5.51,0,0,0,2.7,4.73L253.69,170a5.81,5.81,0,0,0,1.42.58,5.38,5.38,0,0,0-.28,1.71v46.88a5.53,5.53,0,0,0,.17,1.34l-43.69,23.29a5.48,5.48,0,0,0-2.91,4.85v47.67a5.53,5.53,0,0,0,2.76,4.77l41,23.67a5.6,5.6,0,0,0,2.75.73,5.55,5.55,0,0,0,2.76-.74l41.06-23.82a5.51,5.51,0,0,0,1.64-1.47,5.41,5.41,0,0,0,2.33,1.2L329.68,307a1.37,1.37,0,0,0,.34,0,1.5,1.5,0,0,0,.35-3l-26.94-6.36a2.49,2.49,0,0,1-1.92-2.43V248.54a2.52,2.52,0,0,1,1.26-2.18l12.29-7,26.57-15.05a2.52,2.52,0,0,1,3.09.51l31.65,35.31a2.5,2.5,0,0,1,.26,3L357.27,294a1.5,1.5,0,0,0,2.54,1.6l19.36-30.85a5.54,5.54,0,0,0-.57-6.6Zm-48.44,25.69v47.59a2.5,2.5,0,0,1-1.25,2.16L256.2,322.11a2.51,2.51,0,0,1-2.5,0l-41-23.67a2.52,2.52,0,0,1-1.25-2.17V248.61a2.5,2.5,0,0,1,1.33-2.21l43.58-23.23,42.2,23.91Zm43.67-29.41a2.49,2.49,0,0,1-1.26,2.17l-.77.44h0l-38.84,22h0l-.05,0a2.53,2.53,0,0,1-2.47,0l-36.54-20.71-3.13-1.78a2.48,2.48,0,0,1-1.27-2.17V172.25a2.49,2.49,0,0,1,1.38-2.24l20.41-10.2,19.27-9.64a2.56,2.56,0,0,1,1.12-.26,2.59,2.59,0,0,1,1.12.26L340.8,170a2.46,2.46,0,0,1,1.38,2.24Z"/>
        <path d="M372.31,265a1.52,1.52,0,0,0,1-.41,1.5,1.5,0,0,0,0-2.12l-30.28-31.77a1.5,1.5,0,0,0-2.17,2.07l30.28,31.77A1.52,1.52,0,0,0,372.31,265Z"/>
        <path d="M291.34,297.78a1.51,1.51,0,0,0,1.5-1.5V248.63a1.5,1.5,0,0,0-3,0v47.65A1.5,1.5,0,0,0,291.34,297.78Z"/>
        <path d="M257.1,316.34,216.76,292.4a1.5,1.5,0,1,0-1.53,2.58l40.33,23.94a1.44,1.44,0,0,0,.77.21,1.5,1.5,0,0,0,.77-2.79Z"/>
        <path d="M214.3,251.09a1.5,1.5,0,0,0,1.51,2.59l41.27-23.94a1.5,1.5,0,1,0-1.5-2.6Z"/>
        <path d="M219.82,137.47a1.5,1.5,0,0,0-1.52,2.58l40.55,23.78a1.5,1.5,0,0,0,.76.21,1.5,1.5,0,0,0,.76-2.79Z"/>
        <path d="M319.39,88a.94.94,0,0,0,.55-.17l16.65-11.09a1,1,0,1,0-1.11-1.67l-16.65,11.1a1,1,0,0,0-.27,1.39A1,1,0,0,0,319.39,88Z"/>
      </g>
    </g>
  </g>
</svg>
